<svg width="42" height="42" viewBox="0 0 42 42" fill="none" xmlns="http://www.w3.org/2000/svg">
<path fill-rule="evenodd" clip-rule="evenodd" d="M19.3017 4.5322C20.2813 3.70098 21.7187 3.70098 22.6983 4.5322L35.8233 15.6686C36.4111 16.1673 36.75 16.8992 36.75 17.6701V34.125C36.75 35.5747 35.5747 36.75 34.125 36.75H24.0625C23.3376 36.75 22.75 36.1624 22.75 35.4375V24.5H19.25V35.4375C19.25 36.1624 18.6624 36.75 17.9375 36.75H7.875C6.42525 36.75 5.25 35.5747 5.25 34.125V17.6701C5.25 16.8992 5.58886 16.1673 6.17668 15.6686L19.3017 4.5322ZM21 6.53378L7.875 17.6701L7.875 34.125H16.625V23.1875C16.625 22.4626 17.2126 21.875 17.9375 21.875H24.0625C24.7874 21.875 25.375 22.4626 25.375 23.1875V34.125H34.125V17.6701L21 6.53378Z" fill="#817878"/>
</svg>
