<svg width="42" height="42" viewBox="0 0 42 42" fill="none" xmlns="http://www.w3.org/2000/svg">
<path fill-rule="evenodd" clip-rule="evenodd" d="M35 9.625C35 13.0077 32.2577 15.75 28.875 15.75C27.1047 15.75 25.5099 14.999 24.3917 13.7982L15.4449 19.0855C15.6429 19.6878 15.75 20.3314 15.75 21C15.75 21.6686 15.6429 22.3122 15.4449 22.9145L24.392 28.2014C25.5102 27.0009 27.1049 26.25 28.875 26.25C32.2577 26.25 35 28.9923 35 32.375C35 35.7577 32.2577 38.5 28.875 38.5C25.4923 38.5 22.75 35.7577 22.75 32.375C22.75 31.7064 22.8571 31.0628 23.0552 30.4605L14.108 25.1736C12.9898 26.3741 11.3951 27.125 9.625 27.125C6.24226 27.125 3.5 24.3827 3.5 21C3.5 17.6173 6.24226 14.875 9.625 14.875C11.3951 14.875 12.9898 15.6259 14.108 16.8264L23.0551 11.5395L23.0558 11.5416C22.8574 10.9386 22.75 10.2944 22.75 9.625C22.75 6.24226 25.4923 3.5 28.875 3.5C32.2577 3.5 35 6.24226 35 9.625ZM32.375 9.625C32.375 11.558 30.808 13.125 28.875 13.125C26.942 13.125 25.375 11.558 25.375 9.625C25.375 7.692 26.942 6.125 28.875 6.125C30.808 6.125 32.375 7.692 32.375 9.625ZM9.625 24.5C11.558 24.5 13.125 22.933 13.125 21C13.125 19.067 11.558 17.5 9.625 17.5C7.692 17.5 6.125 19.067 6.125 21C6.125 22.933 7.692 24.5 9.625 24.5ZM32.375 32.375C32.375 34.308 30.808 35.875 28.875 35.875C26.942 35.875 25.375 34.308 25.375 32.375C25.375 30.442 26.942 28.875 28.875 28.875C30.808 28.875 32.375 30.442 32.375 32.375Z" fill="#6B6B6B"/>
</svg>
