<svg width="42" height="48" viewBox="0 0 42 48" fill="none" xmlns="http://www.w3.org/2000/svg">
<path d="M39.445 12.84C39.2371 11.8908 38.8138 11.0211 38.2177 10.3188C37.6216 9.61648 36.8738 9.10637 36.05 8.84C33.04 8 21 8 21 8C21 8 8.96002 8 5.95002 8.92C5.12621 9.18637 4.37848 9.69648 3.78238 10.3988C3.18628 11.1011 2.7629 11.9708 2.55502 12.92C2.00415 16.4111 1.73469 19.9526 1.75002 23.5C1.73039 27.0741 1.99987 30.6426 2.55502 34.16C2.7842 35.0797 3.21706 35.9163 3.81178 36.589C4.40649 37.2616 5.14296 37.7476 5.95002 38C8.96002 38.92 21 38.92 21 38.92C21 38.92 33.04 38.92 36.05 38C36.8738 37.7336 37.6216 37.2235 38.2177 36.5212C38.8138 35.8189 39.2371 34.9492 39.445 34C39.9917 30.5352 40.2611 27.0207 40.25 23.5C40.2697 19.9259 40.0002 16.3574 39.445 12.84V12.84Z" stroke="#817878" stroke-width="3" stroke-linecap="round" stroke-linejoin="round"/>
<path d="M17.0625 30.04L27.125 23.5L17.0625 16.96V30.04Z" stroke="#817878" stroke-width="3" stroke-linecap="round" stroke-linejoin="round"/>
</svg>
